<?xml version="1.0" encoding="iso-8859-1"?>
<!-- Generator: Adobe Illustrator 19.0.0, SVG Export Plug-In . SVG Version: 6.00 Build 0)  -->
<svg version="1.1" id="Capa_1" xmlns="http://www.w3.org/2000/svg" xmlns:xlink="http://www.w3.org/1999/xlink" x="0px" y="0px"
	 viewBox="0 0 511.737 511.737" style="enable-background:new 0 0 511.737 511.737;" xml:space="preserve">
<g>
	<path style="fill:#94C1FF;" d="M387.8,467.759c-31.109,0-59.407-11.837-80.678-31.265c-3.045-2.718-5.996-5.677-8.714-8.715
		h-85.081c-21.906,24.551-53.89,39.979-89.391,39.979C57.728,467.759,3.999,414.099,3.999,347.82v23.987
		c0,66.278,53.729,119.938,119.938,119.938c34.701,0,66.044-14.711,87.954-38.386v-0.078c0.477-0.477,0.957-1.038,1.437-1.515
		h85.081c0.477,0.477,0.952,1.038,1.437,1.515v0.078c21.988,23.675,53.254,38.386,87.955,38.386
		c66.277,0,119.938-53.659,119.938-119.938v-23.987C507.737,414.099,454.077,467.759,387.8,467.759z"/>
	<path style="fill:#94C1FF;" d="M259.866,187.904c4.396,0,7.995,3.596,7.995,7.996v31.983h-23.987V195.9
		c0-4.4,3.596-7.996,7.996-7.996H259.866z"/>
</g>
<path style="fill:#FFFFFF;" d="M363.249,373.806c-8.315,2.952-12.634,12.15-9.588,20.466c2.951,8.316,12.149,12.557,20.458,9.597
	l60.133-21.832c8.315-3.03,12.556-12.229,9.597-20.544c-3.038-8.238-12.229-12.557-20.553-9.519L363.249,373.806z M355.097,351.257
	l60.047-21.832c8.315-3.03,12.634-12.229,9.589-20.544c-3.029-8.238-12.229-12.557-20.466-9.519l-60.133,21.832
	c-8.309,2.952-12.626,12.15-9.589,20.474c3.037,8.309,12.149,12.549,20.474,9.589L355.097,351.257L355.097,351.257z
	 M470.475,317.836c16.554,45.656-7.036,96.106-52.613,112.66c-45.656,16.554-96.106-7.035-112.66-52.613
	c-16.633-45.656,6.949-96.106,52.613-112.738C403.471,248.592,453.921,272.172,470.475,317.836z"/>
<g style="opacity:0.5;">
	<path style="fill:#FFFFFF;" d="M313.197,377.884c-16.632-45.656,6.95-96.106,52.613-112.738c8.48-3.076,17.124-4.755,25.69-5.177
		c-11.143-0.473-22.551,1.14-33.686,5.177c-45.664,16.632-69.246,67.082-52.613,112.738c13.477,37.105,49.427,59.625,86.97,57.782
		C357.612,434.198,325.706,412.349,313.197,377.884z"/>
</g>
<g style="opacity:0.2;">
	<path d="M462.432,377.884c16.632-45.656-6.949-96.106-52.613-112.738c-8.48-3.076-17.124-4.755-25.689-5.177
		c11.143-0.473,22.551,1.14,33.686,5.177c45.663,16.632,69.245,67.082,52.613,112.738c-13.478,37.105-49.428,59.625-86.971,57.782
		C418.018,434.198,449.923,412.349,462.432,377.884z"/>
</g>
<path style="fill:#D7E9FF;" d="M434.252,382.038c-8.316,2.967-17.515-1.28-20.466-9.589c-3.046-8.324,1.28-17.515,9.51-20.474
	c8.324-3.038,17.515,1.28,20.553,9.519C446.807,369.809,442.567,379.008,434.252,382.038z"/>
<path style="fill:#5C9EFF;" d="M434.252,382.038l-60.133,21.832c8.323-3.037,12.556-12.228,9.604-20.552
	c-3.046-8.23-12.236-12.556-20.475-9.511l60.047-21.832c-8.229,2.959-12.556,12.149-9.51,20.474
	C416.737,380.758,425.935,385.004,434.252,382.038z"/>
<g>
	<path style="fill:#D7E9FF;" d="M374.119,403.87c-8.309,2.96-17.507-1.28-20.458-9.597c-3.046-8.315,1.272-17.514,9.588-20.466
		c8.238-3.045,17.429,1.28,20.475,9.511C386.675,391.642,382.442,400.832,374.119,403.87z"/>
	<path style="fill:#D7E9FF;" d="M415.144,329.424c-8.316,2.967-17.429-1.28-20.474-9.589c-3.029-8.316,1.28-17.515,9.597-20.474
		c8.237-3.038,17.437,1.28,20.466,9.519C427.778,317.195,423.46,326.393,415.144,329.424z"/>
</g>
<path style="fill:#5C9EFF;" d="M394.671,319.836c3.045,8.309,12.157,12.556,20.474,9.589l-60.047,21.832
	c8.229-3.123,12.47-12.228,9.511-20.552c-3.037-8.23-12.229-12.556-20.474-9.511l60.133-21.832
	C395.951,302.32,391.641,311.518,394.671,319.836z"/>
<path style="fill:#D7E9FF;" d="M355.019,351.257c-8.324,2.96-17.437-1.28-20.474-9.589c-3.037-8.323,1.28-17.521,9.589-20.474
	c8.245-3.045,17.437,1.28,20.474,9.511c2.959,8.324-1.281,17.429-9.511,20.552H355.019z"/>
<g>
	<path style="fill:#FFFFFF;" d="M342.542,341.668c-3.038-8.323,1.28-17.521,9.588-20.474c0.523-0.188,1.047-0.266,1.578-0.405
		c-3.062-0.828-6.388-0.766-9.573,0.405c-8.309,2.952-12.626,12.15-9.589,20.474c2.85,7.793,11.057,11.932,18.928,9.972
		C348.6,350.336,344.415,346.783,342.542,341.668z"/>
	<path style="fill:#FFFFFF;" d="M402.659,319.811c-3.038-8.316,1.28-17.515,9.596-20.466c0.516-0.195,1.047-0.273,1.562-0.406
		c-3.062-0.827-6.372-0.772-9.558,0.406c-8.316,2.951-12.634,12.149-9.597,20.466c2.85,7.801,11.049,11.939,18.928,9.971
		C408.71,328.487,404.524,324.927,402.659,319.811z"/>
	<path style="fill:#FFFFFF;" d="M421.782,372.448c-3.038-8.316,1.28-17.515,9.588-20.474c0.523-0.188,1.047-0.266,1.578-0.398
		c-3.062-0.827-6.388-0.772-9.574,0.398c-8.308,2.959-12.626,12.157-9.588,20.474c2.85,7.801,11.057,11.932,18.928,9.979
		C427.841,381.124,423.655,377.57,421.782,372.448z"/>
	<path style="fill:#FFFFFF;" d="M361.634,394.258c-3.038-8.315,1.28-17.514,9.596-20.466c0.516-0.195,1.047-0.273,1.562-0.405
		c-3.062-0.828-6.372-0.773-9.559,0.405c-8.315,2.952-12.634,12.15-9.596,20.466c2.85,7.801,11.049,11.939,18.928,9.972
		C367.684,402.932,363.499,399.372,361.634,394.258z"/>
</g>
<path style="fill:#94C1FF;" d="M131.932,339.824h39.257c0.48,2.562,0.722,5.278,0.722,7.996s-0.242,5.435-0.722,7.996h-39.257
	v39.261c-2.562,0.477-5.279,0.719-7.996,0.719c-2.721,0-5.438-0.242-7.996-0.719v-39.261H76.68c-0.48-2.562-0.718-5.278-0.718-7.996
	s0.238-5.435,0.718-7.996h39.261v-39.261c2.558-0.484,5.275-0.719,7.996-0.719c2.717,0,5.435,0.234,7.996,0.719v39.261H131.932z"/>
<g>
	<path style="fill:#656D78;" d="M115.94,355.816v39.261c-20.071-3.357-35.903-19.193-39.261-39.261H115.94z"/>
	<path style="fill:#656D78;" d="M115.94,300.564v39.261H76.68C80.037,319.758,95.869,303.922,115.94,300.564z"/>
	<path style="fill:#656D78;" d="M171.189,339.824h-39.257v-39.261C152.078,303.922,167.913,319.758,171.189,339.824z"/>
	<path style="fill:#656D78;" d="M131.932,355.816h39.257c-3.276,20.067-19.111,35.903-39.257,39.261V355.816z"/>
</g>
<g>
	<path style="fill:#5C9EFF;" d="M115.94,355.816v39.261c-20.071-3.357-35.903-19.193-39.261-39.261H115.94z"/>
	<path style="fill:#5C9EFF;" d="M115.94,300.564v39.261H76.68C80.037,319.758,95.869,303.922,115.94,300.564z"/>
	<path style="fill:#5C9EFF;" d="M171.189,339.824h-39.257v-39.261C152.078,303.922,167.913,319.758,171.189,339.824z"/>
	<path style="fill:#5C9EFF;" d="M131.932,355.816h39.257c-3.276,20.067-19.111,35.903-39.257,39.261V355.816z"/>
</g>
<path style="fill:#FFFFFF;" d="M123.936,275.858c39.737,0,71.963,32.296,71.963,71.963c0,39.737-32.226,71.963-71.963,71.963
	c-39.741,0-71.963-32.226-71.963-71.963C51.973,308.154,84.195,275.858,123.936,275.858z M131.932,395.078
	c20.146-3.357,35.981-19.193,39.257-39.261c0.48-2.562,0.722-5.278,0.722-7.996s-0.242-5.435-0.722-7.996
	c-3.276-20.067-19.111-35.903-39.257-39.261c-2.562-0.484-5.279-0.719-7.996-0.719c-2.721,0-5.438,0.234-7.996,0.719
	c-20.071,3.357-35.903,19.193-39.261,39.261c-0.48,2.562-0.718,5.278-0.718,7.996s0.238,5.435,0.718,7.996
	c3.357,20.067,19.189,35.903,39.261,39.261c2.558,0.477,5.275,0.719,7.996,0.719C126.654,395.797,129.371,395.555,131.932,395.078z"
	/>
<path style="fill:#D7E9FF;" d="M507.737,347.82c0,66.278-53.66,119.938-119.938,119.938c-31.109,0-59.407-11.837-80.678-31.265
	c-3.045-2.718-5.996-5.677-8.714-8.715h-85.081c-21.906,24.551-53.89,39.979-89.391,39.979
	C57.728,467.759,3.999,414.099,3.999,347.82c0-66.208,53.729-119.938,119.938-119.938h119.938h23.987H387.8
	C454.077,227.884,507.737,281.612,507.737,347.82z M417.862,430.496c45.577-16.554,69.167-67.004,52.613-112.66
	c-16.555-45.664-67.005-69.245-112.66-52.691c-45.664,16.632-69.246,67.082-52.613,112.738
	C321.756,423.461,372.206,447.051,417.862,430.496z M195.899,347.82c0-39.667-32.226-71.963-71.963-71.963
	c-39.741,0-71.963,32.296-71.963,71.963c0,39.737,32.222,71.963,71.963,71.963C163.674,419.784,195.899,387.557,195.899,347.82z"/>
<path style="fill:#FFFFFF;" d="M19.99,347.82c0-66.208,53.73-119.938,119.938-119.938h-15.992
	c-66.208,0-119.938,53.729-119.938,119.938c0,66.278,53.729,119.938,119.938,119.938c2.608,0,5.149-0.25,7.715-0.421
	C69.316,463.073,19.99,411.303,19.99,347.82z"/>
<path style="fill:#94C1FF;" d="M491.745,347.82c0-66.208-53.729-119.938-119.938-119.938h15.992
	c66.207,0,119.938,53.729,119.938,119.938c0,66.278-53.73,119.938-119.938,119.938c-2.608,0-5.154-0.25-7.715-0.421
	C442.419,463.073,491.745,411.303,491.745,347.82z"/>
<g>
	<path style="fill:#116FFF;" d="M123.936,471.757C55.596,471.757,0,416.16,0,347.82c0-68.339,55.596-123.936,123.936-123.936
		c2.21,0,3.998,1.788,3.998,3.998c0,2.21-1.788,3.998-3.998,3.998c-63.928,0-115.939,52.012-115.939,115.939
		s52.012,115.939,115.939,115.939c32.936,0,64.432-14.086,86.412-38.651c1.472-1.64,3.998-1.78,5.646-0.312
		c1.644,1.476,1.784,3.998,0.312,5.653C192.81,456.702,159.14,471.757,123.936,471.757z"/>
	<path style="fill:#116FFF;" d="M387.8,471.757c-35.201,0-68.871-15.055-92.358-41.291c-1.468-1.655-1.328-4.178,0.312-5.653
		c1.656-1.468,4.186-1.327,5.654,0.312c21.973,24.55,53.456,38.636,86.393,38.636c63.928,0,115.939-52.012,115.939-115.939
		s-52.012-115.939-115.939-115.939c-2.21,0-3.998-1.788-3.998-3.998c0-2.21,1.788-3.998,3.998-3.998
		c68.339,0,123.936,55.597,123.936,123.936C511.735,416.16,456.139,471.757,387.8,471.757z"/>
	<path style="fill:#116FFF;" d="M387.8,231.882H123.936c-2.21,0-3.998-1.788-3.998-3.998c0-2.21,1.788-3.998,3.998-3.998h263.863
		c2.209,0,3.997,1.788,3.997,3.998C391.796,230.094,390.009,231.882,387.8,231.882z"/>
	<path style="fill:#116FFF;" d="M298.408,431.776h-85.081c-2.209,0-3.998-1.788-3.998-3.998c0-2.209,1.788-3.998,3.998-3.998h85.081
		c2.21,0,3.998,1.789,3.998,3.998C302.406,429.988,300.618,431.776,298.408,431.776z"/>
	<path style="fill:#116FFF;" d="M123.936,495.743C55.596,495.743,0,440.147,0,371.807c0-2.209,1.788-3.998,3.998-3.998
		c2.209,0,3.998,1.789,3.998,3.998c0,63.928,52.012,115.939,115.939,115.939c32.936,0,64.432-14.086,86.412-38.651
		c1.472-1.64,3.998-1.78,5.646-0.312c1.644,1.476,1.784,3.998,0.312,5.653C192.81,480.689,159.14,495.743,123.936,495.743z"/>
	<path style="fill:#116FFF;" d="M387.8,495.743c-35.201,0-68.871-15.055-92.358-41.291c-1.468-1.655-1.328-4.178,0.312-5.653
		c1.656-1.468,4.186-1.327,5.654,0.312c21.973,24.55,53.456,38.636,86.393,38.636c63.928,0,115.939-52.012,115.939-115.939
		c0-2.209,1.788-3.998,3.998-3.998c2.209,0,3.998,1.789,3.998,3.998C511.735,440.147,456.139,495.743,387.8,495.743z"/>
	<path style="fill:#116FFF;" d="M298.408,455.764h-85.081c-2.209,0-3.998-1.789-3.998-3.998c0-2.21,1.788-3.998,3.998-3.998h85.081
		c2.21,0,3.998,1.788,3.998,3.998C302.406,453.975,300.618,455.764,298.408,455.764z"/>
	<path style="fill:#116FFF;" d="M123.936,423.78c-41.885,0-75.96-34.075-75.96-75.96s34.076-75.96,75.96-75.96
		s75.96,34.075,75.96,75.96S165.821,423.78,123.936,423.78z M123.936,279.855c-37.477,0-67.965,30.484-67.965,67.965
		s30.488,67.965,67.965,67.965s67.965-30.484,67.965-67.965S161.413,279.855,123.936,279.855z"/>
	<path style="fill:#116FFF;" d="M123.936,399.793c-28.657,0-51.973-23.315-51.973-51.973s23.316-51.973,51.973-51.973
		s51.973,23.315,51.973,51.973S152.594,399.793,123.936,399.793z M123.936,303.844c-24.249,0-43.978,19.725-43.978,43.978
		s19.729,43.978,43.978,43.978s43.977-19.725,43.977-43.978S148.185,303.844,123.936,303.844z"/>
	<path style="fill:#116FFF;" d="M115.94,343.823c-2.21,0-3.998-1.788-3.998-3.998v-23.987c0-2.21,1.788-3.998,3.998-3.998
		s3.998,1.788,3.998,3.998v23.987C119.938,342.034,118.15,343.823,115.94,343.823z"/>
	<path style="fill:#116FFF;" d="M115.94,343.823H91.953c-2.21,0-3.998-1.788-3.998-3.998s1.788-3.997,3.998-3.997h23.987
		c2.21,0,3.998,1.787,3.998,3.997S118.15,343.823,115.94,343.823z"/>
	<path style="fill:#116FFF;" d="M115.94,359.815H91.953c-2.21,0-3.998-1.788-3.998-3.998s1.788-3.998,3.998-3.998h23.987
		c2.21,0,3.998,1.788,3.998,3.998S118.15,359.815,115.94,359.815z"/>
	<path style="fill:#116FFF;" d="M115.94,383.802c-2.21,0-3.998-1.788-3.998-3.998v-23.987c0-2.21,1.788-3.998,3.998-3.998
		s3.998,1.788,3.998,3.998v23.987C119.938,382.014,118.15,383.802,115.94,383.802z"/>
	<path style="fill:#116FFF;" d="M131.932,343.823c-2.21,0-3.998-1.788-3.998-3.998v-23.987c0-2.21,1.788-3.998,3.998-3.998
		c2.209,0,3.998,1.788,3.998,3.998v23.987C135.93,342.034,134.142,343.823,131.932,343.823z"/>
	<path style="fill:#116FFF;" d="M155.92,343.823h-23.987c-2.21,0-3.998-1.788-3.998-3.998s1.788-3.997,3.998-3.997h23.987
		c2.21,0,3.998,1.787,3.998,3.997S158.13,343.823,155.92,343.823z"/>
	<path style="fill:#116FFF;" d="M155.92,359.815h-23.987c-2.21,0-3.998-1.788-3.998-3.998s1.788-3.998,3.998-3.998h23.987
		c2.21,0,3.998,1.788,3.998,3.998S158.13,359.815,155.92,359.815z"/>
	<path style="fill:#116FFF;" d="M131.932,383.802c-2.21,0-3.998-1.788-3.998-3.998v-23.987c0-2.21,1.788-3.998,3.998-3.998
		c2.209,0,3.998,1.788,3.998,3.998v23.987C135.93,382.014,134.142,383.802,131.932,383.802z"/>
	<path style="fill:#116FFF;" d="M387.815,439.772c-38.543,0-73.275-24.347-86.424-60.578
		c-17.304-47.646,7.387-100.486,55.033-117.79c10.12-3.678,20.669-5.54,31.344-5.54c38.55,0,73.289,24.351,86.439,60.582
		c8.386,23.074,7.27,48.037-3.124,70.283c-10.4,22.254-28.837,39.129-51.91,47.499C409.046,437.906,398.497,439.772,387.815,439.772
		z M387.768,263.861c-9.745,0-19.365,1.706-28.61,5.063c-43.509,15.796-66.044,64.045-50.255,107.538
		c12.009,33.084,43.727,55.314,78.912,55.314c9.744,0,19.38-1.702,28.625-5.06c21.067-7.652,37.902-23.051,47.397-43.368
		s10.511-43.103,2.858-64.17C454.686,286.087,422.969,263.861,387.768,263.861z"/>
	<path style="fill:#116FFF;" d="M409.679,334.358c-8.379,0-15.93-5.294-18.787-13.173c-3.764-10.361,1.608-21.855,11.963-25.611
		c10.15-3.686,21.957,1.897,25.611,11.97c1.827,5.014,1.577,10.44-0.68,15.273c-2.256,4.842-6.27,8.512-11.283,10.331
		C414.301,333.953,412.005,334.358,409.679,334.358z M409.679,302.359c-1.391,0-2.765,0.25-4.092,0.734
		c-6.216,2.249-9.433,9.144-7.184,15.367c2.187,6.021,9.253,9.401,15.367,7.168c3.014-1.093,5.419-3.288,6.777-6.192
		c1.351-2.896,1.499-6.16,0.406-9.167C419.236,305.539,414.707,302.359,409.679,302.359z"/>
	<path style="fill:#116FFF;" d="M349.554,356.176c-8.387,0-15.938-5.293-18.795-13.164c-1.819-5.021-1.585-10.448,0.68-15.289
		c2.264-4.842,6.277-8.504,11.291-10.323c10.135-3.654,21.957,1.905,25.604,11.963c1.819,5.028,1.585,10.447-0.68,15.289
		c-2.248,4.841-6.262,8.503-11.291,10.322C354.169,355.77,351.872,356.176,349.554,356.176z M349.554,324.193
		c-1.391,0-2.765,0.234-4.092,0.718c-3.014,1.094-5.419,3.296-6.777,6.2c-1.359,2.904-1.508,6.153-0.406,9.167
		c2.179,6.028,9.229,9.417,15.359,7.184c3.021-1.093,5.427-3.295,6.777-6.2c1.351-2.896,1.499-6.152,0.398-9.166
		C359.103,327.362,354.574,324.193,349.554,324.193z"/>
	<path style="fill:#116FFF;" d="M355.004,355.215c-1.64,0-3.17-1.007-3.764-2.632c-0.75-2.076,0.328-4.372,2.405-5.122
		l60.125-21.832c2.076-0.734,4.372,0.328,5.122,2.405c0.757,2.068-0.312,4.364-2.39,5.122l-60.141,21.816
		C355.917,355.138,355.457,355.215,355.004,355.215z"/>
	<path style="fill:#116FFF;" d="M344.096,325.152c-1.632,0-3.163-1.007-3.756-2.632c-0.758-2.076,0.312-4.372,2.39-5.122
		l60.125-21.832c2.084-0.734,4.372,0.328,5.122,2.405c0.757,2.068-0.312,4.364-2.39,5.122l-60.125,21.816
		C345.009,325.074,344.548,325.152,344.096,325.152z"/>
	<path style="fill:#116FFF;" d="M428.778,386.957c-8.379,0-15.93-5.294-18.787-13.165c-1.827-5.021-1.578-10.447,0.679-15.289
		c2.257-4.833,6.271-8.503,11.283-10.322c10.151-3.701,21.958,1.905,25.612,11.962c1.827,5.021,1.577,10.448-0.68,15.289
		c-2.257,4.834-6.271,8.504-11.283,10.323C433.4,386.551,431.104,386.957,428.778,386.957z M428.778,354.973
		c-1.391,0-2.765,0.234-4.092,0.719c-3.014,1.093-5.419,3.295-6.777,6.2c-1.352,2.904-1.5,6.152-0.406,9.167
		c2.186,6.028,9.245,9.417,15.367,7.184c3.014-1.093,5.418-3.296,6.777-6.2c1.351-2.904,1.499-6.152,0.406-9.167
		C438.335,358.143,433.806,354.973,428.778,354.973z"/>
	<path style="fill:#116FFF;" d="M368.653,408.789c-8.379,0-15.93-5.293-18.787-13.164c-1.827-5.021-1.578-10.448,0.679-15.289
		c2.257-4.834,6.271-8.504,11.283-10.323c10.144-3.686,21.958,1.905,25.612,11.963c1.827,5.021,1.577,10.447-0.68,15.289
		c-2.257,4.833-6.271,8.503-11.283,10.322C373.275,408.384,370.979,408.789,368.653,408.789z M368.653,376.806
		c-1.391,0-2.765,0.234-4.092,0.718c-3.014,1.093-5.419,3.296-6.777,6.2c-1.352,2.904-1.5,6.153-0.406,9.167
		c2.186,6.028,9.245,9.417,15.367,7.184c3.014-1.093,5.418-3.295,6.777-6.2c1.351-2.904,1.499-6.152,0.406-9.166
		C378.21,379.975,373.681,376.806,368.653,376.806z"/>
	<path style="fill:#116FFF;" d="M374.111,407.828c-1.632,0-3.163-1.007-3.756-2.632c-0.758-2.076,0.312-4.372,2.39-5.122
		l60.125-21.832c2.084-0.75,4.372,0.312,5.122,2.39c0.757,2.076-0.312,4.372-2.39,5.122l-60.125,21.832
		C375.024,407.75,374.563,407.828,374.111,407.828z"/>
	<path style="fill:#116FFF;" d="M363.194,377.766c-1.631,0-3.162-1.007-3.756-2.632c-0.757-2.076,0.312-4.372,2.39-5.122
		l60.125-21.832c2.093-0.734,4.373,0.312,5.122,2.39c0.758,2.076-0.312,4.372-2.389,5.122l-60.125,21.832
		C364.108,377.688,363.647,377.766,363.194,377.766z"/>
	<path style="fill:#116FFF;" d="M3.999,377.759c-2.21,0-3.998-1.788-3.998-3.998v-25.939c0-2.21,1.788-3.998,3.998-3.998
		c2.209,0,3.998,1.788,3.998,3.998v25.939C7.997,375.97,6.208,377.759,3.999,377.759z"/>
	<path style="fill:#116FFF;" d="M507.737,375.806c-2.21,0-3.998-1.788-3.998-3.998v-23.987c0-2.21,1.788-3.998,3.998-3.998
		c2.209,0,3.998,1.788,3.998,3.998v23.987C511.735,374.017,509.946,375.806,507.737,375.806z"/>
	<path style="fill:#116FFF;" d="M299.845,457.319c-2.209,0-3.998-1.788-3.998-3.998v-9.55c0-2.21,1.789-3.998,3.998-3.998
		c2.21,0,3.998,1.788,3.998,3.998v9.55C303.843,455.53,302.055,457.319,299.845,457.319z"/>
	<path style="fill:#116FFF;" d="M211.89,457.342c-2.21,0-3.998-1.788-3.998-3.998v-9.573c0-2.21,1.788-3.998,3.998-3.998
		s3.998,1.788,3.998,3.998v9.573C215.889,455.555,214.1,457.342,211.89,457.342z"/>
	<path style="fill:#116FFF;" d="M243.874,399.793h-15.992c-2.209,0-3.998-1.788-3.998-3.997c0-2.21,1.788-3.998,3.998-3.998h15.992
		c2.21,0,3.998,1.788,3.998,3.998C247.872,398.005,246.084,399.793,243.874,399.793z"/>
	<path style="fill:#116FFF;" d="M283.853,399.793h-15.992c-2.21,0-3.997-1.788-3.997-3.997c0-2.21,1.787-3.998,3.997-3.998h15.992
		c2.21,0,3.998,1.788,3.998,3.998C287.851,398.005,286.063,399.793,283.853,399.793z"/>
	<path style="fill:#116FFF;" d="M243.874,223.885c-2.21,0-3.998-1.788-3.998-3.998v-23.987c0-2.21,1.788-3.998,3.998-3.998
		s3.998,1.788,3.998,3.998v23.987C247.872,222.098,246.084,223.885,243.874,223.885z"/>
	<path style="fill:#116FFF;" d="M267.861,223.885c-2.21,0-3.997-1.788-3.997-3.998v-23.987c0-2.21,1.787-3.998,3.997-3.998
		s3.998,1.788,3.998,3.998v23.987C271.859,222.098,270.071,223.885,267.861,223.885z"/>
	<path style="fill:#116FFF;" d="M243.874,199.898c-2.21,0-3.998-1.788-3.998-3.998c0-6.614,5.38-11.994,11.994-11.994
		c2.21,0,3.998,1.788,3.998,3.998c0,2.21-1.788,3.998-3.998,3.998c-2.206,0-3.998,1.792-3.998,3.998
		C247.872,198.109,246.084,199.898,243.874,199.898z"/>
	<path style="fill:#116FFF;" d="M267.861,199.898c-2.21,0-3.997-1.788-3.997-3.998c0-2.206-1.793-3.998-3.998-3.998
		c-2.21,0-3.998-1.788-3.998-3.998c0-2.21,1.788-3.998,3.998-3.998c6.613,0,11.993,5.38,11.993,11.994
		C271.859,198.109,270.071,199.898,267.861,199.898z"/>
	<path style="fill:#116FFF;" d="M259.866,191.902h-7.996c-2.21,0-3.998-1.788-3.998-3.998c0-2.21,1.788-3.998,3.998-3.998h7.996
		c2.209,0,3.998,1.788,3.998,3.998C263.864,190.114,262.075,191.902,259.866,191.902z"/>
	<path style="fill:#116FFF;" d="M255.868,183.906c-2.21,0-3.998-1.788-3.998-3.998c0-15.43,12.556-27.986,27.985-27.986
		c2.21,0,3.998,1.788,3.998,3.998c0,2.21-1.788,3.998-3.998,3.998c-11.025,0-19.989,8.968-19.989,19.99
		C259.866,182.117,258.077,183.906,255.868,183.906z"/>
	<path style="fill:#116FFF;" d="M251.87,63.984c-2.21,0-3.998-1.788-3.998-3.998c0-2.209,1.788-3.998,3.998-3.998
		c11.021,0,19.989-8.968,19.989-19.989c0-2.21,1.788-3.998,3.998-3.998c2.21,0,3.998,1.788,3.998,3.998
		C279.855,51.429,267.3,63.984,251.87,63.984z"/>
	<path style="fill:#116FFF;" d="M427.778,159.919c-2.209,0-3.998-1.788-3.998-3.998c0-2.21,1.789-3.998,3.998-3.998
		c11.025,0,19.99-8.968,19.99-19.989s-8.965-19.99-19.99-19.99c-2.209,0-3.998-1.788-3.998-3.998s1.789-3.998,3.998-3.998
		c15.43,0,27.985,12.556,27.985,27.985S443.208,159.919,427.778,159.919z"/>
	<path style="fill:#116FFF;" d="M427.778,159.919H279.855c-2.21,0-3.998-1.788-3.998-3.998c0-2.21,1.788-3.998,3.998-3.998h147.923
		c2.21,0,3.998,1.788,3.998,3.998C431.776,158.131,429.988,159.919,427.778,159.919z"/>
	<path style="fill:#116FFF;" d="M107.945,111.944c-15.429,0-27.986-12.556-27.986-27.985s12.557-27.986,27.986-27.986
		c2.209,0,3.998,1.789,3.998,3.998c0,2.21-1.788,3.998-3.998,3.998c-11.022,0-19.99,8.968-19.99,19.99
		c0,11.021,8.968,19.99,19.99,19.99c2.209,0,3.998,1.788,3.998,3.998C111.942,110.156,110.154,111.944,107.945,111.944z"/>
	<path style="fill:#116FFF;" d="M251.87,63.969H107.945c-2.209,0-3.998-1.788-3.998-3.998c0-2.209,1.789-3.998,3.998-3.998H251.87
		c2.21,0,3.998,1.789,3.998,3.998C255.868,62.181,254.08,63.969,251.87,63.969z"/>
	<path style="fill:#116FFF;" d="M427.778,111.944H107.945c-2.209,0-3.998-1.788-3.998-3.998s1.789-3.998,3.998-3.998h319.833
		c2.21,0,3.998,1.788,3.998,3.998C431.776,110.156,429.988,111.944,427.778,111.944z"/>
	<path style="fill:#116FFF;" d="M275.857,39.997c-2.21,0-3.998-1.788-3.998-3.998V19.992c0-2.209,1.788-3.998,3.998-3.998
		c2.21,0,3.998,1.788,3.998,3.998v16.007C279.855,38.209,278.067,39.997,275.857,39.997z"/>
</g>
<g>
</g>
<g>
</g>
<g>
</g>
<g>
</g>
<g>
</g>
<g>
</g>
<g>
</g>
<g>
</g>
<g>
</g>
<g>
</g>
<g>
</g>
<g>
</g>
<g>
</g>
<g>
</g>
<g>
</g>
</svg>
